<svg xmlns="http://www.w3.org/2000/svg" xmlns:xlink="http://www.w3.org/1999/xlink" width="131" zoomAndPan="magnify" viewBox="0 0 98.25 98.249996" height="131" preserveAspectRatio="xMidYMid meet" version="1.0"><defs><clipPath id="0678ccac34"><path d="M 0 0 L 97.503906 0 L 97.503906 97.503906 L 0 97.503906 Z M 0 0 " clip-rule="nonzero"/></clipPath></defs><g clip-path="url(#0678ccac34)"><path fill="#2dc100" d="M 48.71875 0 C 21.855469 0 0 21.855469 0 48.71875 C 0 75.578125 21.855469 97.4375 48.71875 97.4375 C 75.578125 97.4375 97.4375 75.578125 97.4375 48.71875 C 97.4375 21.855469 75.578125 0 48.71875 0 Z M 21.355469 81.363281 C 21.808594 66.644531 33.890625 54.808594 48.71875 54.808594 C 63.542969 54.808594 75.625 66.644531 76.078125 81.363281 C 68.667969 87.582031 59.128906 91.347656 48.71875 91.347656 C 38.308594 91.347656 28.769531 87.582031 21.355469 81.363281 Z M 33.492188 33.492188 C 33.492188 25.097656 40.324219 18.269531 48.71875 18.269531 C 57.113281 18.269531 63.941406 25.097656 63.941406 33.492188 C 63.941406 41.886719 57.113281 48.71875 48.71875 48.71875 C 40.324219 48.71875 33.492188 41.886719 33.492188 33.492188 Z M 81.585938 75.832031 C 79.378906 64.449219 71.394531 55.132812 60.820312 51.015625 C 66.378906 47.164062 70.03125 40.75 70.03125 33.492188 C 70.03125 21.742188 60.46875 12.179688 48.71875 12.179688 C 36.96875 12.179688 27.402344 21.742188 27.402344 33.492188 C 27.402344 40.75 31.058594 47.164062 36.613281 51.015625 C 26.039062 55.136719 18.054688 64.453125 15.847656 75.835938 C 9.753906 68.460938 6.089844 59.007812 6.089844 48.71875 C 6.089844 25.210938 25.210938 6.089844 48.71875 6.089844 C 72.222656 6.089844 91.347656 25.210938 91.347656 48.71875 C 91.347656 59.007812 87.679688 68.460938 81.585938 75.832031 Z M 81.585938 75.832031 " fill-opacity="1" fill-rule="nonzero"/><path fill="#2dc100" d="M 48.71875 0 C 21.855469 0 0 21.855469 0 48.71875 C 0 75.578125 21.855469 97.4375 48.71875 97.4375 C 75.578125 97.4375 97.4375 75.578125 97.4375 48.71875 C 97.4375 21.855469 75.578125 0 48.71875 0 Z M 21.355469 81.363281 C 21.808594 66.644531 33.890625 54.808594 48.71875 54.808594 C 63.542969 54.808594 75.625 66.644531 76.078125 81.363281 C 68.667969 87.582031 59.128906 91.347656 48.71875 91.347656 C 38.308594 91.347656 28.769531 87.582031 21.355469 81.363281 Z M 33.492188 33.492188 C 33.492188 25.097656 40.324219 18.269531 48.71875 18.269531 C 57.113281 18.269531 63.941406 25.097656 63.941406 33.492188 C 63.941406 41.886719 57.113281 48.71875 48.71875 48.71875 C 40.324219 48.71875 33.492188 41.886719 33.492188 33.492188 Z M 81.585938 75.832031 C 79.378906 64.449219 71.394531 55.132812 60.820312 51.015625 C 66.378906 47.164062 70.03125 40.75 70.03125 33.492188 C 70.03125 21.742188 60.46875 12.179688 48.71875 12.179688 C 36.96875 12.179688 27.402344 21.742188 27.402344 33.492188 C 27.402344 40.75 31.058594 47.164062 36.613281 51.015625 C 26.039062 55.136719 18.054688 64.453125 15.847656 75.835938 C 9.753906 68.460938 6.089844 59.007812 6.089844 48.71875 C 6.089844 25.210938 25.210938 6.089844 48.71875 6.089844 C 72.222656 6.089844 91.347656 25.210938 91.347656 48.71875 C 91.347656 59.007812 87.679688 68.460938 81.585938 75.832031 Z M 81.585938 75.832031 " fill-opacity="1" fill-rule="nonzero"/></g></svg>