<svg xmlns="http://www.w3.org/2000/svg" xmlns:xlink="http://www.w3.org/1999/xlink" width="117" zoomAndPan="magnify" viewBox="0 0 87.75 87.749997" height="117" preserveAspectRatio="xMidYMid meet" version="1.0"><defs><filter x="0%" y="0%" width="100%" height="100%" id="48e507aaaa"><feColorMatrix values="0 0 0 0 1 0 0 0 0 1 0 0 0 0 1 0 0 0 1 0" color-interpolation-filters="sRGB"/></filter><mask id="34fc45778d"><g filter="url(#48e507aaaa)"><rect x="-8.775" width="105.3" fill="#000000" y="-8.775" height="105.299996" fill-opacity="0.3"/></g></mask><clipPath id="181d5a2e62"><path d="M 0 0.46875 L 65 0.46875 L 65 29.429688 L 0 29.429688 Z M 0 0.46875 " clip-rule="nonzero"/></clipPath><clipPath id="2fc56e3605"><rect x="0" width="67" y="0" height="30"/></clipPath><mask id="399ea5be50"><g filter="url(#48e507aaaa)"><rect x="-8.775" width="105.3" fill="#000000" y="-8.775" height="105.299996" fill-opacity="0.3"/></g></mask><clipPath id="b6fdfbaf85"><path d="M 0.648438 0.308594 L 25.539062 0.308594 L 25.539062 25.195312 L 0.648438 25.195312 Z M 0.648438 0.308594 " clip-rule="nonzero"/></clipPath><clipPath id="192ac722e6"><rect x="0" width="26" y="0" height="26"/></clipPath><clipPath id="b9101254b0"><path d="M 20 0 L 86.753906 0 L 86.753906 86.753906 L 20 86.753906 Z M 20 0 " clip-rule="nonzero"/></clipPath><mask id="32e3543d8a"><g filter="url(#48e507aaaa)"><rect x="-8.775" width="105.3" fill="#000000" y="-8.775" height="105.299996" fill-opacity="0.3"/></g></mask><clipPath id="b4e6c2dfb9"><path d="M 0 0.46875 L 65 0.46875 L 65 29.429688 L 0 29.429688 Z M 0 0.46875 " clip-rule="nonzero"/></clipPath><clipPath id="0cde5c7c40"><rect x="0" width="67" y="0" height="30"/></clipPath><mask id="92067dfe44"><g filter="url(#48e507aaaa)"><rect x="-8.775" width="105.3" fill="#000000" y="-8.775" height="105.299996" fill-opacity="0.3"/></g></mask><clipPath id="654f833ee9"><path d="M 0.648438 0.308594 L 25.539062 0.308594 L 25.539062 25.195312 L 0.648438 25.195312 Z M 0.648438 0.308594 " clip-rule="nonzero"/></clipPath><clipPath id="aace33dea2"><rect x="0" width="26" y="0" height="26"/></clipPath><clipPath id="cc228e861e"><path d="M 20 0 L 86.753906 0 L 86.753906 86.753906 L 20 86.753906 Z M 20 0 " clip-rule="nonzero"/></clipPath></defs><g mask="url(#34fc45778d)"><g transform="matrix(1, 0, 0, 1, 0, 45)"><g clip-path="url(#2fc56e3605)"><g clip-path="url(#181d5a2e62)"><path fill="#2dc100" d="M 64.304688 7.144531 C 56.058594 3.023438 44.519531 0.546875 37.097656 0.546875 C 24.320312 0.546875 0 6.730469 0 19.097656 L 0 29.402344 L 42.042969 29.402344 Z M 64.304688 7.144531 " fill-opacity="1" fill-rule="nonzero"/></g></g></g></g><path fill="#2dc100" d="M 50.289062 66.160156 L 8.242188 66.160156 L 8.242188 64.097656 C 8.242188 60.386719 23.496094 53.792969 37.097656 53.792969 C 44.519531 53.792969 52.351562 55.855469 58.121094 58.328125 L 64.304688 52.144531 C 56.058594 48.023438 44.519531 45.546875 37.097656 45.546875 C 24.320312 45.546875 0 51.730469 0 64.097656 L 0 74.402344 L 42.042969 74.402344 Z M 50.289062 66.160156 " fill-opacity="1" fill-rule="nonzero"/><g mask="url(#399ea5be50)"><g transform="matrix(1, 0, 0, 1, 24, 4)"><g clip-path="url(#192ac722e6)"><g clip-path="url(#b6fdfbaf85)"><path fill="#2dc100" d="M 13.097656 0.328125 C 12.285156 0.328125 11.480469 0.40625 10.6875 0.566406 C 9.890625 0.722656 9.117188 0.957031 8.367188 1.269531 C 7.617188 1.582031 6.902344 1.960938 6.226562 2.414062 C 5.554688 2.863281 4.929688 3.375 4.355469 3.949219 C 3.78125 4.523438 3.265625 5.148438 2.816406 5.824219 C 2.363281 6.5 1.984375 7.210938 1.671875 7.960938 C 1.363281 8.710938 1.128906 9.484375 0.96875 10.28125 C 0.8125 11.078125 0.730469 11.882812 0.730469 12.695312 C 0.730469 13.507812 0.8125 14.308594 0.96875 15.105469 C 1.128906 15.902344 1.363281 16.675781 1.671875 17.425781 C 1.984375 18.175781 2.363281 18.890625 2.816406 19.566406 C 3.265625 20.238281 3.78125 20.863281 4.355469 21.4375 C 4.929688 22.011719 5.554688 22.523438 6.226562 22.976562 C 6.902344 23.425781 7.617188 23.808594 8.367188 24.117188 C 9.117188 24.429688 9.890625 24.664062 10.6875 24.824219 C 11.480469 24.980469 12.285156 25.058594 13.097656 25.058594 C 13.910156 25.058594 14.714844 24.980469 15.511719 24.824219 C 16.308594 24.664062 17.082031 24.429688 17.832031 24.117188 C 18.582031 23.808594 19.292969 23.425781 19.96875 22.976562 C 20.644531 22.523438 21.269531 22.011719 21.84375 21.4375 C 22.417969 20.863281 22.929688 20.238281 23.378906 19.566406 C 23.832031 18.890625 24.210938 18.175781 24.523438 17.425781 C 24.832031 16.675781 25.066406 15.902344 25.226562 15.105469 C 25.386719 14.308594 25.464844 13.507812 25.464844 12.695312 C 25.464844 11.882812 25.386719 11.078125 25.226562 10.28125 C 25.066406 9.484375 24.832031 8.710938 24.523438 7.960938 C 24.210938 7.210938 23.832031 6.5 23.378906 5.824219 C 22.929688 5.148438 22.417969 4.523438 21.84375 3.949219 C 21.269531 3.375 20.644531 2.863281 19.96875 2.414062 C 19.292969 1.960938 18.582031 1.582031 17.832031 1.269531 C 17.082031 0.957031 16.308594 0.722656 15.511719 0.566406 C 14.714844 0.40625 13.910156 0.328125 13.097656 0.328125 Z M 13.097656 0.328125 " fill-opacity="1" fill-rule="nonzero"/></g></g></g></g><g clip-path="url(#b9101254b0)"><path fill="#2dc100" d="M 37.097656 33.183594 C 28.03125 33.183594 20.609375 25.761719 20.609375 16.695312 C 20.609375 7.625 28.03125 0.207031 37.097656 0.207031 C 46.167969 0.207031 53.585938 7.625 53.585938 16.695312 C 53.585938 25.761719 46.167969 33.183594 37.097656 33.183594 Z M 37.097656 8.449219 C 32.5625 8.449219 28.855469 12.160156 28.855469 16.695312 C 28.855469 21.226562 32.5625 24.9375 37.097656 24.9375 C 41.632812 24.9375 45.34375 21.226562 45.34375 16.695312 C 45.34375 12.160156 41.632812 8.449219 37.097656 8.449219 Z M 70.488281 57.503906 L 78.730469 65.746094 L 57.707031 86.769531 L 49.464844 86.769531 L 49.464844 78.523438 Z M 77.90625 50.082031 L 73.785156 54.203125 L 82.027344 62.449219 L 86.152344 58.328125 C 86.976562 57.503906 86.976562 56.265625 86.152344 55.441406 L 80.792969 50.082031 C 79.96875 49.671875 78.320312 49.671875 77.90625 50.082031 Z M 77.90625 50.082031 " fill-opacity="1" fill-rule="nonzero"/></g><g mask="url(#32e3543d8a)"><g transform="matrix(1, 0, 0, 1, 0, 45)"><g clip-path="url(#0cde5c7c40)"><g clip-path="url(#b4e6c2dfb9)"><path fill="#2dc100" d="M 64.304688 7.144531 C 56.058594 3.023438 44.519531 0.546875 37.097656 0.546875 C 24.320312 0.546875 0 6.730469 0 19.097656 L 0 29.402344 L 42.042969 29.402344 Z M 64.304688 7.144531 " fill-opacity="1" fill-rule="nonzero"/></g></g></g></g><path fill="#2dc100" d="M 50.289062 66.160156 L 8.242188 66.160156 L 8.242188 64.097656 C 8.242188 60.386719 23.496094 53.792969 37.097656 53.792969 C 44.519531 53.792969 52.351562 55.855469 58.121094 58.328125 L 64.304688 52.144531 C 56.058594 48.023438 44.519531 45.546875 37.097656 45.546875 C 24.320312 45.546875 0 51.730469 0 64.097656 L 0 74.402344 L 42.042969 74.402344 Z M 50.289062 66.160156 " fill-opacity="1" fill-rule="nonzero"/><g mask="url(#92067dfe44)"><g transform="matrix(1, 0, 0, 1, 24, 4)"><g clip-path="url(#aace33dea2)"><g clip-path="url(#654f833ee9)"><path fill="#2dc100" d="M 13.097656 0.328125 C 12.285156 0.328125 11.480469 0.40625 10.6875 0.566406 C 9.890625 0.722656 9.117188 0.957031 8.367188 1.269531 C 7.617188 1.582031 6.902344 1.960938 6.226562 2.414062 C 5.554688 2.863281 4.929688 3.375 4.355469 3.949219 C 3.78125 4.523438 3.265625 5.148438 2.816406 5.824219 C 2.363281 6.5 1.984375 7.210938 1.671875 7.960938 C 1.363281 8.710938 1.128906 9.484375 0.96875 10.28125 C 0.8125 11.078125 0.730469 11.882812 0.730469 12.695312 C 0.730469 13.507812 0.8125 14.308594 0.96875 15.105469 C 1.128906 15.902344 1.363281 16.675781 1.671875 17.425781 C 1.984375 18.175781 2.363281 18.890625 2.816406 19.566406 C 3.265625 20.238281 3.78125 20.863281 4.355469 21.4375 C 4.929688 22.011719 5.554688 22.523438 6.226562 22.976562 C 6.902344 23.425781 7.617188 23.808594 8.367188 24.117188 C 9.117188 24.429688 9.890625 24.664062 10.6875 24.824219 C 11.480469 24.980469 12.285156 25.058594 13.097656 25.058594 C 13.910156 25.058594 14.714844 24.980469 15.511719 24.824219 C 16.308594 24.664062 17.082031 24.429688 17.832031 24.117188 C 18.582031 23.808594 19.292969 23.425781 19.96875 22.976562 C 20.644531 22.523438 21.269531 22.011719 21.84375 21.4375 C 22.417969 20.863281 22.929688 20.238281 23.378906 19.566406 C 23.832031 18.890625 24.210938 18.175781 24.523438 17.425781 C 24.832031 16.675781 25.066406 15.902344 25.226562 15.105469 C 25.386719 14.308594 25.464844 13.507812 25.464844 12.695312 C 25.464844 11.882812 25.386719 11.078125 25.226562 10.28125 C 25.066406 9.484375 24.832031 8.710938 24.523438 7.960938 C 24.210938 7.210938 23.832031 6.5 23.378906 5.824219 C 22.929688 5.148438 22.417969 4.523438 21.84375 3.949219 C 21.269531 3.375 20.644531 2.863281 19.96875 2.414062 C 19.292969 1.960938 18.582031 1.582031 17.832031 1.269531 C 17.082031 0.957031 16.308594 0.722656 15.511719 0.566406 C 14.714844 0.40625 13.910156 0.328125 13.097656 0.328125 Z M 13.097656 0.328125 " fill-opacity="1" fill-rule="nonzero"/></g></g></g></g><g clip-path="url(#cc228e861e)"><path fill="#2dc100" d="M 37.097656 33.183594 C 28.03125 33.183594 20.609375 25.761719 20.609375 16.695312 C 20.609375 7.625 28.03125 0.207031 37.097656 0.207031 C 46.167969 0.207031 53.585938 7.625 53.585938 16.695312 C 53.585938 25.761719 46.167969 33.183594 37.097656 33.183594 Z M 37.097656 8.449219 C 32.5625 8.449219 28.855469 12.160156 28.855469 16.695312 C 28.855469 21.226562 32.5625 24.9375 37.097656 24.9375 C 41.632812 24.9375 45.34375 21.226562 45.34375 16.695312 C 45.34375 12.160156 41.632812 8.449219 37.097656 8.449219 Z M 70.488281 57.503906 L 78.730469 65.746094 L 57.707031 86.769531 L 49.464844 86.769531 L 49.464844 78.523438 Z M 77.90625 50.082031 L 73.785156 54.203125 L 82.027344 62.449219 L 86.152344 58.328125 C 86.976562 57.503906 86.976562 56.265625 86.152344 55.441406 L 80.792969 50.082031 C 79.96875 49.671875 78.320312 49.671875 77.90625 50.082031 Z M 77.90625 50.082031 " fill-opacity="1" fill-rule="nonzero"/></g></svg>