<svg xmlns="http://www.w3.org/2000/svg" xmlns:xlink="http://www.w3.org/1999/xlink" width="51" zoomAndPan="magnify" viewBox="0 0 38.25 47.250001" height="63" preserveAspectRatio="xMidYMid meet" version="1.0"><defs><clipPath id="b4b16eb6b0"><path d="M 0 0.0859375 L 37.515625 0.0859375 L 37.515625 45.691406 L 0 45.691406 Z M 0 0.0859375 " clip-rule="nonzero"/></clipPath></defs><g clip-path="url(#b4b16eb6b0)"><path fill="#37c760" d="M 30.730469 32.488281 L 34.894531 41.4375 C 34.953125 41.558594 34.9375 41.691406 34.855469 41.792969 C 34.777344 41.898438 34.65625 41.949219 34.523438 41.925781 L 29.300781 41.011719 L 26.628906 45.597656 C 26.566406 45.710938 26.449219 45.773438 26.316406 45.769531 C 26.1875 45.765625 26.078125 45.691406 26.019531 45.570312 L 22.5 38.003906 C 24.730469 38.550781 27 37.664062 28.273438 35.714844 L 29.863281 33.28125 C 30.09375 32.933594 30.371094 32.671875 30.730469 32.488281 Z M 14.96875 38.003906 L 11.445312 45.570312 C 11.390625 45.691406 11.28125 45.765625 11.148438 45.769531 C 11.015625 45.773438 10.898438 45.710938 10.835938 45.597656 L 8.171875 41.011719 L 2.941406 41.925781 C 2.8125 41.949219 2.6875 41.898438 2.609375 41.792969 C 2.527344 41.691406 2.511719 41.558594 2.570312 41.4375 L 6.738281 32.488281 C 7.09375 32.671875 7.371094 32.933594 7.601562 33.28125 C 7.601562 33.28125 9.195312 35.714844 9.195312 35.714844 C 10.46875 37.664062 12.734375 38.550781 14.96875 38.003906 Z M 30.320312 31.007812 C 29.582031 31.320312 29.039062 31.785156 28.597656 32.449219 L 27.003906 34.886719 C 26.050781 36.347656 24.316406 36.976562 22.644531 36.476562 L 19.851562 35.632812 C 19.089844 35.398438 18.375 35.398438 17.613281 35.632812 L 14.824219 36.476562 C 13.152344 36.976562 11.417969 36.347656 10.460938 34.886719 L 8.867188 32.449219 C 8.429688 31.785156 7.882812 31.320312 7.148438 31.007812 L 4.472656 29.863281 C 2.871094 29.175781 1.945312 27.574219 2.148438 25.84375 L 2.492188 22.949219 C 2.589844 22.15625 2.464844 21.453125 2.109375 20.742188 L 0.792969 18.140625 C 0.00390625 16.585938 0.324219 14.761719 1.597656 13.566406 L 3.722656 11.574219 C 4.308594 11.03125 4.664062 10.410156 4.84375 9.636719 L 5.511719 6.792969 C 5.90625 5.097656 7.324219 3.910156 9.0625 3.8125 L 11.972656 3.652344 C 12.769531 3.609375 13.445312 3.363281 14.078125 2.886719 L 16.410156 1.136719 C 17.808594 0.09375 19.65625 0.09375 21.054688 1.136719 L 23.390625 2.886719 C 24.027344 3.363281 24.695312 3.609375 25.496094 3.652344 L 28.402344 3.8125 C 30.144531 3.910156 31.5625 5.097656 31.957031 6.792969 L 32.625 9.636719 C 32.804688 10.410156 33.160156 11.03125 33.746094 11.574219 L 35.867188 13.566406 C 37.140625 14.761719 37.460938 16.585938 36.671875 18.140625 L 35.355469 20.742188 C 35 21.453125 34.875 22.15625 34.972656 22.949219 L 35.316406 25.84375 C 35.523438 27.574219 34.601562 29.175781 32.992188 29.863281 Z M 26.988281 27.941406 C 29.34375 25.738281 30.816406 22.601562 30.816406 19.121094 C 30.816406 12.449219 25.40625 7.039062 18.734375 7.039062 C 12.058594 7.039062 6.652344 12.449219 6.652344 19.121094 C 6.652344 22.601562 8.121094 25.738281 10.476562 27.941406 C 11.273438 24.113281 14.667969 21.234375 18.734375 21.234375 C 22.796875 21.234375 26.191406 24.113281 26.988281 27.941406 Z M 18.734375 20.289062 C 16.386719 20.289062 14.464844 18.371094 14.464844 16.023438 C 14.464844 13.675781 16.386719 11.753906 18.734375 11.753906 C 21.082031 11.753906 23 13.675781 23 16.023438 C 23 18.371094 21.082031 20.289062 18.734375 20.289062 Z M 16.625 16.652344 L 17.542969 17.570312 C 17.828125 17.855469 18.285156 17.867188 18.585938 17.59375 L 20.816406 15.570312 C 21.125 15.289062 21.148438 14.8125 20.867188 14.503906 C 20.585938 14.191406 20.109375 14.167969 19.800781 14.449219 L 18.101562 15.988281 L 17.695312 15.582031 C 17.398438 15.285156 16.917969 15.285156 16.625 15.582031 C 16.328125 15.875 16.328125 16.355469 16.625 16.652344 Z M 16.625 16.652344 " fill-opacity="1" fill-rule="evenodd"/><path fill="#37c760" d="M 30.730469 32.488281 L 34.894531 41.4375 C 34.953125 41.558594 34.9375 41.691406 34.855469 41.792969 C 34.777344 41.898438 34.65625 41.949219 34.523438 41.925781 L 29.300781 41.011719 L 26.628906 45.597656 C 26.566406 45.710938 26.449219 45.773438 26.316406 45.769531 C 26.1875 45.765625 26.078125 45.691406 26.019531 45.570312 L 22.5 38.003906 C 24.730469 38.550781 27 37.664062 28.273438 35.714844 L 29.863281 33.28125 C 30.09375 32.933594 30.371094 32.671875 30.730469 32.488281 Z M 14.96875 38.003906 L 11.445312 45.570312 C 11.390625 45.691406 11.28125 45.765625 11.148438 45.769531 C 11.015625 45.773438 10.898438 45.710938 10.835938 45.597656 L 8.171875 41.011719 L 2.941406 41.925781 C 2.8125 41.949219 2.6875 41.898438 2.609375 41.792969 C 2.527344 41.691406 2.511719 41.558594 2.570312 41.4375 L 6.738281 32.488281 C 7.09375 32.671875 7.371094 32.933594 7.601562 33.28125 C 7.601562 33.28125 9.195312 35.714844 9.195312 35.714844 C 10.46875 37.664062 12.734375 38.550781 14.96875 38.003906 Z M 30.320312 31.007812 C 29.582031 31.320312 29.039062 31.785156 28.597656 32.449219 L 27.003906 34.886719 C 26.050781 36.347656 24.316406 36.976562 22.644531 36.476562 L 19.851562 35.632812 C 19.089844 35.398438 18.375 35.398438 17.613281 35.632812 L 14.824219 36.476562 C 13.152344 36.976562 11.417969 36.347656 10.460938 34.886719 L 8.867188 32.449219 C 8.429688 31.785156 7.882812 31.320312 7.148438 31.007812 L 4.472656 29.863281 C 2.871094 29.175781 1.945312 27.574219 2.148438 25.84375 L 2.492188 22.949219 C 2.589844 22.15625 2.464844 21.453125 2.109375 20.742188 L 0.792969 18.140625 C 0.00390625 16.585938 0.324219 14.761719 1.597656 13.566406 L 3.722656 11.574219 C 4.308594 11.03125 4.664062 10.410156 4.84375 9.636719 L 5.511719 6.792969 C 5.90625 5.097656 7.324219 3.910156 9.0625 3.8125 L 11.972656 3.652344 C 12.769531 3.609375 13.445312 3.363281 14.078125 2.886719 L 16.410156 1.136719 C 17.808594 0.09375 19.65625 0.09375 21.054688 1.136719 L 23.390625 2.886719 C 24.027344 3.363281 24.695312 3.609375 25.496094 3.652344 L 28.402344 3.8125 C 30.144531 3.910156 31.5625 5.097656 31.957031 6.792969 L 32.625 9.636719 C 32.804688 10.410156 33.160156 11.03125 33.746094 11.574219 L 35.867188 13.566406 C 37.140625 14.761719 37.460938 16.585938 36.671875 18.140625 L 35.355469 20.742188 C 35 21.453125 34.875 22.15625 34.972656 22.949219 L 35.316406 25.84375 C 35.523438 27.574219 34.601562 29.175781 32.992188 29.863281 Z M 26.988281 27.941406 C 29.34375 25.738281 30.816406 22.601562 30.816406 19.121094 C 30.816406 12.449219 25.40625 7.039062 18.734375 7.039062 C 12.058594 7.039062 6.652344 12.449219 6.652344 19.121094 C 6.652344 22.601562 8.121094 25.738281 10.476562 27.941406 C 11.273438 24.113281 14.667969 21.234375 18.734375 21.234375 C 22.796875 21.234375 26.191406 24.113281 26.988281 27.941406 Z M 18.734375 20.289062 C 16.386719 20.289062 14.464844 18.371094 14.464844 16.023438 C 14.464844 13.675781 16.386719 11.753906 18.734375 11.753906 C 21.082031 11.753906 23 13.675781 23 16.023438 C 23 18.371094 21.082031 20.289062 18.734375 20.289062 Z M 16.625 16.652344 L 17.542969 17.570312 C 17.828125 17.855469 18.285156 17.867188 18.585938 17.59375 L 20.816406 15.570312 C 21.125 15.289062 21.148438 14.8125 20.867188 14.503906 C 20.585938 14.191406 20.109375 14.167969 19.800781 14.449219 L 18.101562 15.988281 L 17.695312 15.582031 C 17.398438 15.285156 16.917969 15.285156 16.625 15.582031 C 16.328125 15.875 16.328125 16.355469 16.625 16.652344 Z M 16.625 16.652344 " fill-opacity="1" fill-rule="evenodd"/></g></svg>