<svg xmlns="http://www.w3.org/2000/svg" xmlns:xlink="http://www.w3.org/1999/xlink" width="63" zoomAndPan="magnify" viewBox="0 0 47.25 39.749999" height="53" preserveAspectRatio="xMidYMid meet" version="1.0"><defs><clipPath id="e12200b8af"><path d="M 0 0.1875 L 46.511719 0.1875 L 46.511719 39.316406 L 0 39.316406 Z M 0 0.1875 " clip-rule="nonzero"/></clipPath><clipPath id="4b38a50c33"><path d="M 0 0.1875 L 46.511719 0.1875 L 46.511719 39.316406 L 0 39.316406 Z M 0 0.1875 " clip-rule="nonzero"/></clipPath></defs><g clip-path="url(#e12200b8af)"><path fill="#37c760" d="M 40.390625 19.054688 C 40.949219 18.496094 41.273438 17.734375 41.273438 16.925781 L 41.273438 9.042969 C 41.273438 7.378906 39.917969 6.027344 38.257812 6.027344 L 29.84375 6.027344 L 28.785156 2.425781 C 28.398438 1.109375 27.167969 0.1875 25.792969 0.1875 L 15.480469 0.1875 C 14.109375 0.1875 12.878906 1.109375 12.488281 2.425781 L 11.429688 6.027344 L 3.015625 6.027344 C 1.355469 6.027344 0 7.378906 0 9.042969 L 0 16.925781 C 0 18.085938 0.683594 19.148438 1.71875 19.644531 L 1.71875 34.324219 C 1.71875 35.988281 3.070312 37.339844 4.734375 37.339844 L 29.757812 37.339844 C 31.539062 38.578125 33.628906 39.234375 35.808594 39.234375 C 41.660156 39.234375 46.417969 34.476562 46.417969 28.625 C 46.417969 24.503906 44.070312 20.8125 40.390625 19.054688 Z M 15.199219 4.050781 C 15.328125 3.617188 15.71875 3.328125 16.167969 3.328125 L 25.109375 3.328125 C 25.558594 3.328125 25.945312 3.617188 26.074219 4.050781 L 26.667969 6.027344 L 14.605469 6.027344 Z M 0.738281 16.925781 L 0.738281 9.042969 C 0.738281 7.785156 1.761719 6.765625 3.015625 6.765625 L 38.257812 6.765625 C 39.511719 6.765625 40.535156 7.785156 40.535156 9.042969 L 40.535156 16.925781 C 40.535156 17.640625 40.207031 18.300781 39.644531 18.730469 C 38.421875 18.257812 37.132812 18.015625 35.808594 18.015625 C 33.792969 18.015625 31.832031 18.582031 30.136719 19.65625 C 28.53125 20.675781 27.230469 22.105469 26.363281 23.792969 C 25.789062 24.007812 25.214844 24.21875 24.644531 24.433594 L 23.410156 24.894531 L 23.410156 22.894531 C 23.410156 22.117188 22.777344 21.488281 22.003906 21.488281 L 19.273438 21.488281 C 18.496094 21.488281 17.863281 22.117188 17.863281 22.894531 L 17.863281 24.894531 L 2.222656 19.0625 C 2.222656 19.0625 2.21875 19.058594 2.21875 19.058594 C 1.332031 18.726562 0.738281 17.871094 0.738281 16.925781 Z M 19.605469 28.0625 L 21.667969 28.0625 C 21.871094 28.0625 22.035156 27.898438 22.035156 27.695312 L 22.035156 26.003906 L 22.671875 26.003906 L 22.671875 28.375 C 22.671875 28.742188 22.371094 29.042969 22.003906 29.042969 L 19.273438 29.042969 C 18.902344 29.042969 18.601562 28.742188 18.601562 28.375 L 18.601562 26.003906 L 19.238281 26.003906 L 19.238281 27.695312 C 19.238281 27.898438 19.402344 28.0625 19.605469 28.0625 Z M 22.671875 25.265625 L 18.601562 25.265625 L 18.601562 22.894531 C 18.601562 22.523438 18.902344 22.222656 19.273438 22.222656 L 22.003906 22.222656 C 22.371094 22.222656 22.671875 22.523438 22.671875 22.894531 Z M 35.808594 38.5 C 33.742188 38.5 31.761719 37.867188 30.082031 36.671875 C 27.488281 34.820312 25.9375 31.8125 25.9375 28.625 C 25.9375 27.089844 26.277344 25.617188 26.957031 24.25 C 28.632812 20.859375 32.027344 18.75 35.808594 18.75 C 37.105469 18.75 38.367188 19 39.554688 19.488281 C 43.277344 21.015625 45.679688 24.601562 45.679688 28.625 C 45.679688 34.070312 41.253906 38.5 35.808594 38.5 Z M 35.808594 38.5 " fill-opacity="1" fill-rule="nonzero"/></g><path fill="#37c760" d="M 42.492188 23.03125 C 41.847656 22.503906 40.898438 22.597656 40.371094 23.238281 L 33.933594 31.074219 C 33.84375 31.1875 33.703125 31.25 33.5625 31.246094 C 33.417969 31.246094 33.28125 31.179688 33.191406 31.066406 L 31.246094 28.589844 C 30.960938 28.222656 30.527344 28.015625 30.0625 28.015625 C 29.722656 28.015625 29.398438 28.125 29.132812 28.335938 C 28.816406 28.585938 28.617188 28.941406 28.566406 29.339844 C 28.519531 29.742188 28.628906 30.136719 28.878906 30.449219 L 31.773438 34.132812 C 32.195312 34.671875 32.835938 34.988281 33.519531 34.996094 C 33.53125 34.996094 33.539062 34.996094 33.546875 34.996094 C 34.222656 34.996094 34.859375 34.695312 35.289062 34.171875 L 42.699219 25.152344 C 42.917969 24.882812 43.039062 24.542969 43.039062 24.195312 C 43.039062 23.742188 42.839844 23.316406 42.492188 23.03125 Z M 42.492188 23.03125 " fill-opacity="1" fill-rule="nonzero"/><g clip-path="url(#4b38a50c33)"><path fill="#37c760" d="M 40.390625 19.054688 C 40.949219 18.496094 41.273438 17.734375 41.273438 16.925781 L 41.273438 9.042969 C 41.273438 7.378906 39.917969 6.027344 38.257812 6.027344 L 29.84375 6.027344 L 28.785156 2.425781 C 28.398438 1.109375 27.167969 0.1875 25.792969 0.1875 L 15.480469 0.1875 C 14.109375 0.1875 12.878906 1.109375 12.488281 2.425781 L 11.429688 6.027344 L 3.015625 6.027344 C 1.355469 6.027344 0 7.378906 0 9.042969 L 0 16.925781 C 0 18.085938 0.683594 19.148438 1.71875 19.644531 L 1.71875 34.324219 C 1.71875 35.988281 3.070312 37.339844 4.734375 37.339844 L 29.757812 37.339844 C 31.539062 38.578125 33.628906 39.234375 35.808594 39.234375 C 41.660156 39.234375 46.417969 34.476562 46.417969 28.625 C 46.417969 24.503906 44.070312 20.8125 40.390625 19.054688 Z M 15.199219 4.050781 C 15.328125 3.617188 15.71875 3.328125 16.167969 3.328125 L 25.109375 3.328125 C 25.558594 3.328125 25.945312 3.617188 26.074219 4.050781 L 26.667969 6.027344 L 14.605469 6.027344 Z M 0.738281 16.925781 L 0.738281 9.042969 C 0.738281 7.785156 1.761719 6.765625 3.015625 6.765625 L 38.257812 6.765625 C 39.511719 6.765625 40.535156 7.785156 40.535156 9.042969 L 40.535156 16.925781 C 40.535156 17.640625 40.207031 18.300781 39.644531 18.730469 C 38.421875 18.257812 37.132812 18.015625 35.808594 18.015625 C 33.792969 18.015625 31.832031 18.582031 30.136719 19.65625 C 28.53125 20.675781 27.230469 22.105469 26.363281 23.792969 C 25.789062 24.007812 25.214844 24.21875 24.644531 24.433594 L 23.410156 24.894531 L 23.410156 22.894531 C 23.410156 22.117188 22.777344 21.488281 22.003906 21.488281 L 19.273438 21.488281 C 18.496094 21.488281 17.863281 22.117188 17.863281 22.894531 L 17.863281 24.894531 L 2.222656 19.0625 C 2.222656 19.0625 2.21875 19.058594 2.21875 19.058594 C 1.332031 18.726562 0.738281 17.871094 0.738281 16.925781 Z M 19.605469 28.0625 L 21.667969 28.0625 C 21.871094 28.0625 22.035156 27.898438 22.035156 27.695312 L 22.035156 26.003906 L 22.671875 26.003906 L 22.671875 28.375 C 22.671875 28.742188 22.371094 29.042969 22.003906 29.042969 L 19.273438 29.042969 C 18.902344 29.042969 18.601562 28.742188 18.601562 28.375 L 18.601562 26.003906 L 19.238281 26.003906 L 19.238281 27.695312 C 19.238281 27.898438 19.402344 28.0625 19.605469 28.0625 Z M 22.671875 25.265625 L 18.601562 25.265625 L 18.601562 22.894531 C 18.601562 22.523438 18.902344 22.222656 19.273438 22.222656 L 22.003906 22.222656 C 22.371094 22.222656 22.671875 22.523438 22.671875 22.894531 Z M 35.808594 38.5 C 33.742188 38.5 31.761719 37.867188 30.082031 36.671875 C 27.488281 34.820312 25.9375 31.8125 25.9375 28.625 C 25.9375 27.089844 26.277344 25.617188 26.957031 24.25 C 28.632812 20.859375 32.027344 18.75 35.808594 18.75 C 37.105469 18.75 38.367188 19 39.554688 19.488281 C 43.277344 21.015625 45.679688 24.601562 45.679688 28.625 C 45.679688 34.070312 41.253906 38.5 35.808594 38.5 Z M 35.808594 38.5 " fill-opacity="1" fill-rule="nonzero"/></g><path fill="#37c760" d="M 42.492188 23.03125 C 41.847656 22.503906 40.898438 22.597656 40.371094 23.238281 L 33.933594 31.074219 C 33.84375 31.1875 33.703125 31.25 33.5625 31.246094 C 33.417969 31.246094 33.28125 31.179688 33.191406 31.066406 L 31.246094 28.589844 C 30.960938 28.222656 30.527344 28.015625 30.0625 28.015625 C 29.722656 28.015625 29.398438 28.125 29.132812 28.335938 C 28.816406 28.585938 28.617188 28.941406 28.566406 29.339844 C 28.519531 29.742188 28.628906 30.136719 28.878906 30.449219 L 31.773438 34.132812 C 32.195312 34.671875 32.835938 34.988281 33.519531 34.996094 C 33.53125 34.996094 33.539062 34.996094 33.546875 34.996094 C 34.222656 34.996094 34.859375 34.695312 35.289062 34.171875 L 42.699219 25.152344 C 42.917969 24.882812 43.039062 24.542969 43.039062 24.195312 C 43.039062 23.742188 42.839844 23.316406 42.492188 23.03125 Z M 42.492188 23.03125 " fill-opacity="1" fill-rule="nonzero"/></svg>