<svg xmlns="http://www.w3.org/2000/svg" xmlns:xlink="http://www.w3.org/1999/xlink" width="40" zoomAndPan="magnify" viewBox="0 0 30 45.749998" height="61" preserveAspectRatio="xMidYMid meet" version="1.0"><defs><clipPath id="f5598bd996"><path d="M 0.0820312 5 L 29.171875 5 L 29.171875 44.753906 L 0.0820312 44.753906 Z M 0.0820312 5 " clip-rule="nonzero"/></clipPath><clipPath id="c52929fd38"><path d="M 0.0820312 5 L 29.171875 5 L 29.171875 44.753906 L 0.0820312 44.753906 Z M 0.0820312 5 " clip-rule="nonzero"/></clipPath></defs><path fill="#ffffff" d="M 19.796875 2.75 C 19.796875 1.246094 18.574219 0.0273438 17.070312 0.0273438 L 12.402344 0.0273438 C 10.902344 0.0273438 9.679688 1.246094 9.679688 2.75 L 7.734375 2.75 L 7.734375 8.800781 L 21.738281 8.800781 L 21.738281 2.75 L 19.796875 2.75 " fill-opacity="1" fill-rule="nonzero"/><path fill="#5aaf4b" d="M 15.972656 2.664062 C 15.972656 3.34375 15.421875 3.898438 14.738281 3.898438 C 14.054688 3.898438 13.503906 3.34375 13.503906 2.664062 C 13.503906 1.980469 14.054688 1.429688 14.738281 1.429688 C 15.421875 1.429688 15.972656 1.980469 15.972656 2.664062 " fill-opacity="1" fill-rule="nonzero"/><g clip-path="url(#f5598bd996)"><path fill="#56b65d" d="M 29.394531 42.066406 C 29.394531 43.621094 28.105469 44.878906 26.511719 44.878906 L 2.964844 44.878906 C 1.371094 44.878906 0.078125 43.621094 0.078125 42.066406 L 0.078125 8.695312 C 0.078125 7.140625 1.371094 5.878906 2.964844 5.878906 L 26.511719 5.878906 C 28.105469 5.878906 29.394531 7.140625 29.394531 8.695312 L 29.394531 42.066406 " fill-opacity="1" fill-rule="nonzero"/></g><path fill="#ffffff" d="M 27.601562 39.609375 C 27.601562 40.933594 26.46875 42.007812 25.070312 42.007812 L 4.40625 42.007812 C 3.007812 42.007812 1.875 40.933594 1.875 39.609375 L 1.875 11.152344 C 1.875 9.828125 3.007812 8.753906 4.40625 8.753906 L 25.070312 8.753906 C 26.46875 8.753906 27.601562 9.828125 27.601562 11.152344 L 27.601562 39.609375 " fill-opacity="1" fill-rule="nonzero"/><path fill="#5aaf4b" d="M 24.28125 14.140625 L 10.796875 14.140625 L 10.796875 13.09375 L 24.28125 13.09375 L 24.28125 14.140625 " fill-opacity="1" fill-rule="nonzero"/><path fill="#5aaf4b" d="M 24.28125 18.0625 L 10.796875 18.0625 L 10.796875 17.015625 L 24.28125 17.015625 L 24.28125 18.0625 " fill-opacity="1" fill-rule="nonzero"/><path fill="#5aaf4b" d="M 24.28125 21.984375 L 10.796875 21.984375 L 10.796875 20.9375 L 24.28125 20.9375 L 24.28125 21.984375 " fill-opacity="1" fill-rule="nonzero"/><path fill="#5aaf4b" d="M 24.28125 25.90625 L 10.796875 25.90625 L 10.796875 24.855469 L 24.28125 24.855469 L 24.28125 25.90625 " fill-opacity="1" fill-rule="nonzero"/><path fill="#5aaf4b" d="M 24.28125 29.824219 L 10.796875 29.824219 L 10.796875 28.777344 L 24.28125 28.777344 L 24.28125 29.824219 " fill-opacity="1" fill-rule="nonzero"/><path fill="#5aaf4b" d="M 24.28125 33.746094 L 10.796875 33.746094 L 10.796875 32.699219 L 24.28125 32.699219 L 24.28125 33.746094 " fill-opacity="1" fill-rule="nonzero"/><path fill="#5aaf4b" d="M 24.28125 37.667969 L 4.371094 37.667969 L 4.371094 36.621094 L 24.28125 36.621094 L 24.28125 37.667969 " fill-opacity="1" fill-rule="nonzero"/><path fill="#5aaf4b" d="M 9.25 17.972656 L 4.371094 17.972656 L 4.371094 13.09375 L 9.25 13.09375 L 9.25 17.972656 " fill-opacity="1" fill-rule="nonzero"/><path fill="#5aaf4b" d="M 9.25 24.894531 L 4.371094 24.894531 L 4.371094 20.011719 L 9.25 20.011719 L 9.25 24.894531 " fill-opacity="1" fill-rule="nonzero"/><path fill="#5aaf4b" d="M 9.25 31.816406 L 4.371094 31.816406 L 4.371094 26.933594 L 9.25 26.933594 L 9.25 31.816406 " fill-opacity="1" fill-rule="nonzero"/><path fill="#ffffff" d="M 6.394531 17.34375 C 6.316406 17.34375 6.242188 17.316406 6.179688 17.261719 L 5.082031 16.285156 C 4.949219 16.164062 4.9375 15.960938 5.054688 15.828125 C 5.175781 15.695312 5.378906 15.679688 5.511719 15.800781 L 6.210938 16.421875 C 6.410156 15.824219 6.90625 14.835938 8.113281 13.800781 C 8.25 13.683594 8.453125 13.699219 8.570312 13.835938 C 8.6875 13.96875 8.671875 14.175781 8.535156 14.292969 C 6.863281 15.726562 6.71875 17.039062 6.71875 17.050781 C 6.707031 17.171875 6.625 17.277344 6.511719 17.320312 C 6.472656 17.335938 6.433594 17.34375 6.394531 17.34375 " fill-opacity="1" fill-rule="nonzero"/><path fill="#ffffff" d="M 6.394531 24.261719 C 6.316406 24.261719 6.242188 24.234375 6.179688 24.183594 L 5.082031 23.203125 C 4.949219 23.085938 4.9375 22.878906 5.054688 22.75 C 5.175781 22.613281 5.378906 22.601562 5.511719 22.71875 L 6.210938 23.339844 C 6.410156 22.746094 6.90625 21.753906 8.113281 20.722656 C 8.25 20.605469 8.453125 20.621094 8.570312 20.757812 C 8.6875 20.890625 8.671875 21.09375 8.535156 21.210938 C 6.863281 22.644531 6.71875 23.957031 6.71875 23.96875 C 6.707031 24.089844 6.625 24.199219 6.511719 24.242188 C 6.472656 24.253906 6.433594 24.261719 6.394531 24.261719 " fill-opacity="1" fill-rule="nonzero"/><path fill="#ffffff" d="M 6.394531 31.113281 C 6.316406 31.113281 6.242188 31.082031 6.179688 31.03125 L 5.082031 30.050781 C 4.949219 29.933594 4.9375 29.726562 5.054688 29.59375 C 5.175781 29.460938 5.378906 29.449219 5.511719 29.566406 L 6.210938 30.1875 C 6.410156 29.59375 6.90625 28.601562 8.113281 27.566406 C 8.25 27.453125 8.453125 27.46875 8.570312 27.605469 C 8.6875 27.738281 8.671875 27.945312 8.535156 28.0625 C 6.863281 29.492188 6.71875 30.804688 6.71875 30.816406 C 6.707031 30.9375 6.625 31.046875 6.511719 31.089844 C 6.472656 31.105469 6.433594 31.113281 6.394531 31.113281 " fill-opacity="1" fill-rule="nonzero"/><path fill="#ffffff" d="M 19.796875 2.75 C 19.796875 1.246094 18.574219 0.0273438 17.070312 0.0273438 L 12.402344 0.0273438 C 10.902344 0.0273438 9.679688 1.246094 9.679688 2.75 L 7.734375 2.75 L 7.734375 8.800781 L 21.738281 8.800781 L 21.738281 2.75 L 19.796875 2.75 " fill-opacity="1" fill-rule="nonzero"/><path fill="#5aaf4b" d="M 15.972656 2.664062 C 15.972656 3.34375 15.421875 3.898438 14.738281 3.898438 C 14.054688 3.898438 13.503906 3.34375 13.503906 2.664062 C 13.503906 1.980469 14.054688 1.429688 14.738281 1.429688 C 15.421875 1.429688 15.972656 1.980469 15.972656 2.664062 " fill-opacity="1" fill-rule="nonzero"/><g clip-path="url(#c52929fd38)"><path fill="#56b65d" d="M 29.394531 42.066406 C 29.394531 43.621094 28.105469 44.878906 26.511719 44.878906 L 2.964844 44.878906 C 1.371094 44.878906 0.078125 43.621094 0.078125 42.066406 L 0.078125 8.695312 C 0.078125 7.140625 1.371094 5.878906 2.964844 5.878906 L 26.511719 5.878906 C 28.105469 5.878906 29.394531 7.140625 29.394531 8.695312 L 29.394531 42.066406 " fill-opacity="1" fill-rule="nonzero"/></g><path fill="#ffffff" d="M 27.601562 39.609375 C 27.601562 40.933594 26.46875 42.007812 25.070312 42.007812 L 4.40625 42.007812 C 3.007812 42.007812 1.875 40.933594 1.875 39.609375 L 1.875 11.152344 C 1.875 9.828125 3.007812 8.753906 4.40625 8.753906 L 25.070312 8.753906 C 26.46875 8.753906 27.601562 9.828125 27.601562 11.152344 L 27.601562 39.609375 " fill-opacity="1" fill-rule="nonzero"/><path fill="#5aaf4b" d="M 24.28125 14.140625 L 10.796875 14.140625 L 10.796875 13.09375 L 24.28125 13.09375 L 24.28125 14.140625 " fill-opacity="1" fill-rule="nonzero"/><path fill="#5aaf4b" d="M 24.28125 18.0625 L 10.796875 18.0625 L 10.796875 17.015625 L 24.28125 17.015625 L 24.28125 18.0625 " fill-opacity="1" fill-rule="nonzero"/><path fill="#5aaf4b" d="M 24.28125 21.984375 L 10.796875 21.984375 L 10.796875 20.9375 L 24.28125 20.9375 L 24.28125 21.984375 " fill-opacity="1" fill-rule="nonzero"/><path fill="#5aaf4b" d="M 24.28125 25.90625 L 10.796875 25.90625 L 10.796875 24.855469 L 24.28125 24.855469 L 24.28125 25.90625 " fill-opacity="1" fill-rule="nonzero"/><path fill="#5aaf4b" d="M 24.28125 29.824219 L 10.796875 29.824219 L 10.796875 28.777344 L 24.28125 28.777344 L 24.28125 29.824219 " fill-opacity="1" fill-rule="nonzero"/><path fill="#5aaf4b" d="M 24.28125 33.746094 L 10.796875 33.746094 L 10.796875 32.699219 L 24.28125 32.699219 L 24.28125 33.746094 " fill-opacity="1" fill-rule="nonzero"/><path fill="#5aaf4b" d="M 24.28125 37.667969 L 4.371094 37.667969 L 4.371094 36.621094 L 24.28125 36.621094 L 24.28125 37.667969 " fill-opacity="1" fill-rule="nonzero"/><path fill="#5aaf4b" d="M 9.25 17.972656 L 4.371094 17.972656 L 4.371094 13.09375 L 9.25 13.09375 L 9.25 17.972656 " fill-opacity="1" fill-rule="nonzero"/><path fill="#5aaf4b" d="M 9.25 24.894531 L 4.371094 24.894531 L 4.371094 20.011719 L 9.25 20.011719 L 9.25 24.894531 " fill-opacity="1" fill-rule="nonzero"/><path fill="#5aaf4b" d="M 9.25 31.816406 L 4.371094 31.816406 L 4.371094 26.933594 L 9.25 26.933594 L 9.25 31.816406 " fill-opacity="1" fill-rule="nonzero"/><path fill="#ffffff" d="M 6.394531 17.34375 C 6.316406 17.34375 6.242188 17.316406 6.179688 17.261719 L 5.082031 16.285156 C 4.949219 16.164062 4.9375 15.960938 5.054688 15.828125 C 5.175781 15.695312 5.378906 15.679688 5.511719 15.800781 L 6.210938 16.421875 C 6.410156 15.824219 6.90625 14.835938 8.113281 13.800781 C 8.25 13.683594 8.453125 13.699219 8.570312 13.835938 C 8.6875 13.96875 8.671875 14.175781 8.535156 14.292969 C 6.863281 15.726562 6.71875 17.039062 6.71875 17.050781 C 6.707031 17.171875 6.625 17.277344 6.511719 17.320312 C 6.472656 17.335938 6.433594 17.34375 6.394531 17.34375 " fill-opacity="1" fill-rule="nonzero"/><path fill="#ffffff" d="M 6.394531 24.261719 C 6.316406 24.261719 6.242188 24.234375 6.179688 24.183594 L 5.082031 23.203125 C 4.949219 23.085938 4.9375 22.878906 5.054688 22.75 C 5.175781 22.613281 5.378906 22.601562 5.511719 22.71875 L 6.210938 23.339844 C 6.410156 22.746094 6.90625 21.753906 8.113281 20.722656 C 8.25 20.605469 8.453125 20.621094 8.570312 20.757812 C 8.6875 20.890625 8.671875 21.09375 8.535156 21.210938 C 6.863281 22.644531 6.71875 23.957031 6.71875 23.96875 C 6.707031 24.089844 6.625 24.199219 6.511719 24.242188 C 6.472656 24.253906 6.433594 24.261719 6.394531 24.261719 " fill-opacity="1" fill-rule="nonzero"/><path fill="#ffffff" d="M 6.394531 31.113281 C 6.316406 31.113281 6.242188 31.082031 6.179688 31.03125 L 5.082031 30.050781 C 4.949219 29.933594 4.9375 29.726562 5.054688 29.59375 C 5.175781 29.460938 5.378906 29.449219 5.511719 29.566406 L 6.210938 30.1875 C 6.410156 29.59375 6.90625 28.601562 8.113281 27.566406 C 8.25 27.453125 8.453125 27.46875 8.570312 27.605469 C 8.6875 27.738281 8.671875 27.945312 8.535156 28.0625 C 6.863281 29.492188 6.71875 30.804688 6.71875 30.816406 C 6.707031 30.9375 6.625 31.046875 6.511719 31.089844 C 6.472656 31.105469 6.433594 31.113281 6.394531 31.113281 " fill-opacity="1" fill-rule="nonzero"/></svg>