<svg xmlns="http://www.w3.org/2000/svg" xmlns:xlink="http://www.w3.org/1999/xlink" width="68" zoomAndPan="magnify" viewBox="0 0 50.879997 48" height="64" preserveAspectRatio="xMidYMid meet" version="1.0"><defs><clipPath id="cdea496163"><path d="M 0.460938 33 L 46 33 L 46 38 L 0.460938 38 Z M 0.460938 33 " clip-rule="nonzero"/></clipPath><clipPath id="dff361338c"><path d="M 8 27 L 39 27 L 39 46.285156 L 8 46.285156 Z M 8 27 " clip-rule="nonzero"/></clipPath><clipPath id="3277f97707"><path d="M 30 0 L 50.300781 0 L 50.300781 13 L 30 13 Z M 30 0 " clip-rule="nonzero"/></clipPath><clipPath id="99e47935d0"><path d="M 0.460938 33 L 46 33 L 46 38 L 0.460938 38 Z M 0.460938 33 " clip-rule="nonzero"/></clipPath><clipPath id="742739b258"><path d="M 8 27 L 39 27 L 39 46.285156 L 8 46.285156 Z M 8 27 " clip-rule="nonzero"/></clipPath><clipPath id="ef39613279"><path d="M 30 0 L 50.300781 0 L 50.300781 13 L 30 13 Z M 30 0 " clip-rule="nonzero"/></clipPath></defs><path fill="#646464" d="M 40.640625 8.4375 L 5.375 8.4375 C 4.640625 8.4375 4.046875 9.035156 4.046875 9.773438 L 4.046875 33.582031 L 18.121094 33.582031 L 18.121094 34.730469 L 28.058594 34.730469 L 28.058594 33.582031 L 41.96875 33.582031 L 41.96875 9.773438 C 41.96875 9.035156 41.378906 8.4375 40.640625 8.4375 Z M 40.640625 8.4375 " fill-opacity="1" fill-rule="evenodd"/><g clip-path="url(#cdea496163)"><path fill="#2b2b2b" d="M 45.382812 34.371094 C 45.304688 33.914062 44.921875 33.582031 44.453125 33.582031 L 27.792969 33.582031 C 27.566406 33.582031 27.34375 33.671875 27.175781 33.824219 L 26.71875 34.246094 C 26.378906 34.558594 25.933594 34.730469 25.472656 34.730469 L 20.558594 34.730469 C 20.089844 34.730469 19.632812 34.550781 19.285156 34.234375 L 18.851562 33.835938 C 18.671875 33.675781 18.445312 33.582031 18.203125 33.582031 L 1.5625 33.582031 C 1.101562 33.582031 0.710938 33.914062 0.632812 34.371094 C 0.628906 34.394531 0.625 34.429688 0.625 34.46875 C 0.460938 36.308594 1.894531 37.816406 3.742188 37.816406 L 41.964844 37.816406 C 43.863281 37.816406 45.402344 36.269531 45.382812 34.371094 Z M 45.382812 34.371094 " fill-opacity="1" fill-rule="evenodd"/></g><path fill="#ffffff" d="M 6.445312 10.527344 L 39.566406 10.527344 L 39.566406 30.554688 L 6.445312 30.554688 Z M 6.445312 10.527344 " fill-opacity="1" fill-rule="evenodd"/><g clip-path="url(#dff361338c)"><path fill="#9ce491" d="M 8.515625 28.714844 L 8.515625 42.824219 C 8.515625 44.15625 9.59375 45.234375 10.925781 45.234375 L 21.546875 45.234375 L 21.863281 45.550781 C 22.363281 46.050781 23.019531 46.320312 23.722656 46.320312 C 24.429688 46.320312 25.085938 46.050781 25.585938 45.550781 L 25.949219 45.1875 L 36.347656 45.1875 C 37.671875 45.1875 38.75 44.109375 38.75 42.78125 L 38.75 28.714844 C 38.75 28.207031 38.347656 27.800781 37.835938 27.800781 L 9.429688 27.800781 C 8.925781 27.800781 8.515625 28.207031 8.515625 28.714844 Z M 8.515625 28.714844 " fill-opacity="1" fill-rule="nonzero"/></g><path fill="#ffffff" d="M 37.664062 42.78125 C 37.664062 43.507812 37.074219 44.097656 36.347656 44.097656 L 25.5 44.097656 L 24.816406 44.777344 C 24.523438 45.070312 24.136719 45.234375 23.722656 45.234375 C 23.3125 45.234375 22.925781 45.070312 22.636719 44.777344 L 21.996094 44.144531 L 10.925781 44.144531 C 10.191406 44.144531 9.605469 43.550781 9.605469 42.824219 L 9.605469 29.351562 C 9.605469 29.003906 9.886719 28.726562 10.230469 28.726562 L 36.953125 28.726562 C 37.347656 28.726562 37.664062 29.042969 37.664062 29.433594 Z M 37.664062 42.78125 " fill-opacity="1" fill-rule="nonzero"/><path fill="#5aaf4b" d="M 35.726562 42.324219 L 25.414062 42.324219 C 25.121094 42.324219 24.871094 42.523438 24.796875 42.804688 L 24.742188 43.007812 C 24.542969 43.765625 23.777344 44.144531 23.101562 43.746094 C 23.054688 43.71875 23.015625 43.691406 22.972656 43.660156 C 22.847656 43.5625 22.757812 43.425781 22.699219 43.277344 L 22.515625 42.824219 C 22.398438 42.523438 22.105469 42.324219 21.777344 42.324219 L 11.632812 42.324219 C 11.0625 42.324219 10.601562 41.867188 10.601562 41.296875 L 10.601562 27.003906 C 10.601562 26.390625 11.101562 25.894531 11.714844 25.894531 L 22.386719 25.894531 C 22.703125 25.894531 22.992188 26.066406 23.140625 26.339844 L 23.691406 27.179688 C 23.757812 27.28125 23.910156 27.277344 23.976562 27.175781 L 24.445312 26.371094 C 24.589844 26.082031 24.886719 25.894531 25.210938 25.894531 L 35.640625 25.894531 C 36.257812 25.894531 36.753906 26.390625 36.753906 27.003906 L 36.753906 41.296875 C 36.753906 41.867188 36.292969 42.324219 35.726562 42.324219 Z M 35.726562 42.324219 " fill-opacity="1" fill-rule="evenodd"/><path fill="#9ce491" d="M 23.859375 41.105469 C 23.460938 41.105469 23.132812 40.777344 23.132812 40.378906 L 23.179688 26.421875 L 23.652344 27.039062 C 23.757812 27.167969 23.957031 27.164062 24.050781 27.027344 L 24.589844 26.164062 L 24.589844 40.378906 C 24.589844 40.777344 24.261719 41.105469 23.859375 41.105469 Z M 23.859375 41.105469 " fill-opacity="1" fill-rule="nonzero"/><path fill="#ffffff" d="M 19.242188 30.382812 L 14.351562 30.382812 C 14.046875 30.382812 13.800781 30.136719 13.800781 29.835938 C 13.800781 29.527344 14.046875 29.28125 14.351562 29.28125 L 19.242188 29.28125 C 19.550781 29.28125 19.796875 29.527344 19.796875 29.835938 C 19.796875 30.136719 19.550781 30.382812 19.242188 30.382812 Z M 19.242188 30.382812 " fill-opacity="1" fill-rule="nonzero"/><path fill="#ffffff" d="M 19.242188 32.296875 L 14.351562 32.296875 C 14.046875 32.296875 13.800781 32.054688 13.800781 31.75 C 13.800781 31.445312 14.046875 31.199219 14.351562 31.199219 L 19.242188 31.199219 C 19.550781 31.199219 19.796875 31.445312 19.796875 31.75 C 19.796875 32.054688 19.550781 32.296875 19.242188 32.296875 Z M 19.242188 32.296875 " fill-opacity="1" fill-rule="nonzero"/><path fill="#ffffff" d="M 16.800781 39.640625 L 14.351562 39.640625 C 14.046875 39.640625 13.800781 39.394531 13.800781 39.09375 C 13.800781 38.785156 14.046875 38.542969 14.351562 38.542969 L 16.800781 38.542969 C 17.101562 38.542969 17.347656 38.785156 17.347656 39.09375 C 17.347656 39.394531 17.101562 39.640625 16.800781 39.640625 Z M 16.800781 39.640625 " fill-opacity="1" fill-rule="nonzero"/><path fill="#ffffff" d="M 19.242188 34.546875 L 14.351562 34.546875 C 14.046875 34.546875 13.800781 34.300781 13.800781 33.992188 C 13.800781 33.691406 14.046875 33.445312 14.351562 33.445312 L 19.242188 33.445312 C 19.550781 33.445312 19.796875 33.691406 19.796875 33.992188 C 19.796875 34.300781 19.550781 34.546875 19.242188 34.546875 Z M 19.242188 34.546875 " fill-opacity="1" fill-rule="nonzero"/><path fill="#ffffff" d="M 33.050781 32.464844 L 28.152344 32.464844 C 27.851562 32.464844 27.605469 32.21875 27.605469 31.910156 C 27.605469 31.609375 27.851562 31.363281 28.152344 31.363281 L 33.050781 31.363281 C 33.351562 31.363281 33.597656 31.609375 33.597656 31.910156 C 33.597656 32.21875 33.351562 32.464844 33.050781 32.464844 Z M 33.050781 32.464844 " fill-opacity="1" fill-rule="nonzero"/><path fill="#ffffff" d="M 30.601562 34.511719 L 28.152344 34.511719 C 27.851562 34.511719 27.605469 34.265625 27.605469 33.964844 C 27.605469 33.65625 27.851562 33.410156 28.152344 33.410156 L 30.601562 33.410156 C 30.90625 33.410156 31.152344 33.65625 31.152344 33.964844 C 31.152344 34.265625 30.90625 34.511719 30.601562 34.511719 Z M 30.601562 34.511719 " fill-opacity="1" fill-rule="nonzero"/><path fill="#ffffff" d="M 33.050781 30.382812 L 28.152344 30.382812 C 27.851562 30.382812 27.605469 30.136719 27.605469 29.828125 C 27.605469 29.527344 27.851562 29.28125 28.152344 29.28125 L 33.050781 29.28125 C 33.351562 29.28125 33.597656 29.527344 33.597656 29.828125 C 33.597656 30.136719 33.351562 30.382812 33.050781 30.382812 Z M 33.050781 30.382812 " fill-opacity="1" fill-rule="nonzero"/><path fill="#ffffff" d="M 19.242188 36.355469 L 14.351562 36.355469 C 14.046875 36.355469 13.800781 36.109375 13.800781 35.804688 C 13.800781 35.5 14.046875 35.253906 14.351562 35.253906 L 19.242188 35.253906 C 19.550781 35.253906 19.796875 35.5 19.796875 35.804688 C 19.796875 36.109375 19.550781 36.355469 19.242188 36.355469 Z M 19.242188 36.355469 " fill-opacity="1" fill-rule="nonzero"/><path fill="#9ce491" d="M 17.292969 24.410156 C 17.152344 24.410156 17.007812 24.371094 16.878906 24.28125 L 13.066406 21.621094 C 12.734375 21.394531 12.65625 20.9375 12.882812 20.613281 C 13.117188 20.28125 13.566406 20.199219 13.898438 20.429688 L 17.710938 23.089844 C 18.035156 23.316406 18.121094 23.773438 17.886719 24.097656 C 17.75 24.300781 17.519531 24.410156 17.292969 24.410156 Z M 17.292969 24.410156 " fill-opacity="1" fill-rule="nonzero"/><path fill="#5aaf4b" d="M 20.019531 21.554688 C 19.785156 21.554688 19.558594 21.441406 19.414062 21.234375 L 17.785156 18.828125 C 17.554688 18.488281 17.644531 18.039062 17.976562 17.816406 C 18.308594 17.589844 18.757812 17.679688 18.984375 18.011719 L 20.617188 20.417969 C 20.84375 20.753906 20.753906 21.203125 20.425781 21.425781 C 20.300781 21.511719 20.15625 21.554688 20.019531 21.554688 Z M 20.019531 21.554688 " fill-opacity="1" fill-rule="nonzero"/><path fill="#9ce491" d="M 23.632812 20.597656 C 23.234375 20.597656 22.90625 20.355469 22.90625 20.058594 L 22.90625 16.621094 C 22.90625 16.324219 23.234375 16.085938 23.632812 16.085938 C 24.035156 16.085938 24.359375 16.324219 24.359375 16.621094 L 24.359375 20.058594 C 24.359375 20.355469 24.035156 20.597656 23.632812 20.597656 Z M 23.632812 20.597656 " fill-opacity="1" fill-rule="nonzero"/><path fill="#5aaf4b" d="M 27.34375 21.554688 C 27.199219 21.554688 27.054688 21.511719 26.933594 21.425781 C 26.601562 21.199219 26.515625 20.746094 26.746094 20.417969 L 28.316406 18.125 C 28.542969 17.796875 28.996094 17.714844 29.324219 17.941406 C 29.65625 18.167969 29.742188 18.617188 29.511719 18.949219 L 27.941406 21.238281 C 27.796875 21.441406 27.574219 21.554688 27.34375 21.554688 Z M 27.34375 21.554688 " fill-opacity="1" fill-rule="nonzero"/><path fill="#9ce491" d="M 30.25 24.226562 C 30.003906 24.226562 29.761719 24.101562 29.628906 23.875 C 29.417969 23.527344 29.527344 23.085938 29.875 22.882812 L 33.503906 20.699219 C 33.851562 20.492188 34.296875 20.605469 34.503906 20.949219 C 34.710938 21.292969 34.597656 21.738281 34.257812 21.945312 L 30.621094 24.121094 C 30.503906 24.195312 30.375 24.226562 30.25 24.226562 Z M 30.25 24.226562 " fill-opacity="1" fill-rule="nonzero"/><g clip-path="url(#3277f97707)"><path fill="#9ce491" d="M 44.53125 1.792969 L 50.011719 11.972656 C 50.277344 12.472656 49.953125 12.84375 49.285156 12.792969 C 49.285156 12.792969 36.742188 11.410156 36.660156 11.261719 L 30.949219 0.863281 C 30.679688 0.367188 31.003906 -0.00390625 31.667969 0.0390625 L 42.832031 0.804688 C 43.5 0.851562 44.261719 1.296875 44.53125 1.792969 Z M 44.53125 1.792969 " fill-opacity="1" fill-rule="evenodd"/></g><path fill="#5aaf4b" d="M 34.371094 4.261719 C 35.8125 2.023438 46.417969 8.835938 44.960938 11.09375 L 42.375 15.035156 C 42.054688 15.53125 39.753906 13.984375 36.832031 12.101562 C 33.90625 10.210938 31.460938 8.707031 31.785156 8.203125 Z M 34.371094 4.261719 " fill-opacity="1" fill-rule="evenodd"/><path fill="#646464" d="M 40.640625 8.4375 L 5.375 8.4375 C 4.640625 8.4375 4.046875 9.035156 4.046875 9.773438 L 4.046875 33.582031 L 18.121094 33.582031 L 18.121094 34.730469 L 28.058594 34.730469 L 28.058594 33.582031 L 41.96875 33.582031 L 41.96875 9.773438 C 41.96875 9.035156 41.378906 8.4375 40.640625 8.4375 Z M 40.640625 8.4375 " fill-opacity="1" fill-rule="evenodd"/><g clip-path="url(#99e47935d0)"><path fill="#2b2b2b" d="M 45.382812 34.371094 C 45.304688 33.914062 44.921875 33.582031 44.453125 33.582031 L 27.792969 33.582031 C 27.566406 33.582031 27.34375 33.671875 27.175781 33.824219 L 26.71875 34.246094 C 26.378906 34.558594 25.933594 34.730469 25.472656 34.730469 L 20.558594 34.730469 C 20.089844 34.730469 19.632812 34.550781 19.285156 34.234375 L 18.851562 33.835938 C 18.671875 33.675781 18.445312 33.582031 18.203125 33.582031 L 1.5625 33.582031 C 1.101562 33.582031 0.710938 33.914062 0.632812 34.371094 C 0.628906 34.394531 0.625 34.429688 0.625 34.46875 C 0.460938 36.308594 1.894531 37.816406 3.742188 37.816406 L 41.964844 37.816406 C 43.863281 37.816406 45.402344 36.269531 45.382812 34.371094 Z M 45.382812 34.371094 " fill-opacity="1" fill-rule="evenodd"/></g><path fill="#ffffff" d="M 6.445312 10.527344 L 39.566406 10.527344 L 39.566406 30.554688 L 6.445312 30.554688 Z M 6.445312 10.527344 " fill-opacity="1" fill-rule="evenodd"/><g clip-path="url(#742739b258)"><path fill="#9ce491" d="M 8.515625 28.714844 L 8.515625 42.824219 C 8.515625 44.15625 9.59375 45.234375 10.925781 45.234375 L 21.546875 45.234375 L 21.863281 45.550781 C 22.363281 46.050781 23.019531 46.320312 23.722656 46.320312 C 24.429688 46.320312 25.085938 46.050781 25.585938 45.550781 L 25.949219 45.1875 L 36.347656 45.1875 C 37.671875 45.1875 38.75 44.109375 38.75 42.78125 L 38.75 28.714844 C 38.75 28.207031 38.347656 27.800781 37.835938 27.800781 L 9.429688 27.800781 C 8.925781 27.800781 8.515625 28.207031 8.515625 28.714844 Z M 8.515625 28.714844 " fill-opacity="1" fill-rule="nonzero"/></g><path fill="#ffffff" d="M 37.664062 42.78125 C 37.664062 43.507812 37.074219 44.097656 36.347656 44.097656 L 25.5 44.097656 L 24.816406 44.777344 C 24.523438 45.070312 24.136719 45.234375 23.722656 45.234375 C 23.3125 45.234375 22.925781 45.070312 22.636719 44.777344 L 21.996094 44.144531 L 10.925781 44.144531 C 10.191406 44.144531 9.605469 43.550781 9.605469 42.824219 L 9.605469 29.351562 C 9.605469 29.003906 9.886719 28.726562 10.230469 28.726562 L 36.953125 28.726562 C 37.347656 28.726562 37.664062 29.042969 37.664062 29.433594 Z M 37.664062 42.78125 " fill-opacity="1" fill-rule="nonzero"/><path fill="#5aaf4b" d="M 35.726562 42.324219 L 25.414062 42.324219 C 25.121094 42.324219 24.871094 42.523438 24.796875 42.804688 L 24.742188 43.007812 C 24.542969 43.765625 23.777344 44.144531 23.101562 43.746094 C 23.054688 43.71875 23.015625 43.691406 22.972656 43.660156 C 22.847656 43.5625 22.757812 43.425781 22.699219 43.277344 L 22.515625 42.824219 C 22.398438 42.523438 22.105469 42.324219 21.777344 42.324219 L 11.632812 42.324219 C 11.0625 42.324219 10.601562 41.867188 10.601562 41.296875 L 10.601562 27.003906 C 10.601562 26.390625 11.101562 25.894531 11.714844 25.894531 L 22.386719 25.894531 C 22.703125 25.894531 22.992188 26.066406 23.140625 26.339844 L 23.691406 27.179688 C 23.757812 27.28125 23.910156 27.277344 23.976562 27.175781 L 24.445312 26.371094 C 24.589844 26.082031 24.886719 25.894531 25.210938 25.894531 L 35.640625 25.894531 C 36.257812 25.894531 36.753906 26.390625 36.753906 27.003906 L 36.753906 41.296875 C 36.753906 41.867188 36.292969 42.324219 35.726562 42.324219 Z M 35.726562 42.324219 " fill-opacity="1" fill-rule="evenodd"/><path fill="#9ce491" d="M 23.859375 41.105469 C 23.460938 41.105469 23.132812 40.777344 23.132812 40.378906 L 23.179688 26.421875 L 23.652344 27.039062 C 23.757812 27.167969 23.957031 27.164062 24.050781 27.027344 L 24.589844 26.164062 L 24.589844 40.378906 C 24.589844 40.777344 24.261719 41.105469 23.859375 41.105469 Z M 23.859375 41.105469 " fill-opacity="1" fill-rule="nonzero"/><path fill="#ffffff" d="M 19.242188 30.382812 L 14.351562 30.382812 C 14.046875 30.382812 13.800781 30.136719 13.800781 29.835938 C 13.800781 29.527344 14.046875 29.28125 14.351562 29.28125 L 19.242188 29.28125 C 19.550781 29.28125 19.796875 29.527344 19.796875 29.835938 C 19.796875 30.136719 19.550781 30.382812 19.242188 30.382812 Z M 19.242188 30.382812 " fill-opacity="1" fill-rule="nonzero"/><path fill="#ffffff" d="M 19.242188 32.296875 L 14.351562 32.296875 C 14.046875 32.296875 13.800781 32.054688 13.800781 31.75 C 13.800781 31.445312 14.046875 31.199219 14.351562 31.199219 L 19.242188 31.199219 C 19.550781 31.199219 19.796875 31.445312 19.796875 31.75 C 19.796875 32.054688 19.550781 32.296875 19.242188 32.296875 Z M 19.242188 32.296875 " fill-opacity="1" fill-rule="nonzero"/><path fill="#ffffff" d="M 16.800781 39.640625 L 14.351562 39.640625 C 14.046875 39.640625 13.800781 39.394531 13.800781 39.09375 C 13.800781 38.785156 14.046875 38.542969 14.351562 38.542969 L 16.800781 38.542969 C 17.101562 38.542969 17.347656 38.785156 17.347656 39.09375 C 17.347656 39.394531 17.101562 39.640625 16.800781 39.640625 Z M 16.800781 39.640625 " fill-opacity="1" fill-rule="nonzero"/><path fill="#ffffff" d="M 19.242188 34.546875 L 14.351562 34.546875 C 14.046875 34.546875 13.800781 34.300781 13.800781 33.992188 C 13.800781 33.691406 14.046875 33.445312 14.351562 33.445312 L 19.242188 33.445312 C 19.550781 33.445312 19.796875 33.691406 19.796875 33.992188 C 19.796875 34.300781 19.550781 34.546875 19.242188 34.546875 Z M 19.242188 34.546875 " fill-opacity="1" fill-rule="nonzero"/><path fill="#ffffff" d="M 33.050781 32.464844 L 28.152344 32.464844 C 27.851562 32.464844 27.605469 32.21875 27.605469 31.910156 C 27.605469 31.609375 27.851562 31.363281 28.152344 31.363281 L 33.050781 31.363281 C 33.351562 31.363281 33.597656 31.609375 33.597656 31.910156 C 33.597656 32.21875 33.351562 32.464844 33.050781 32.464844 Z M 33.050781 32.464844 " fill-opacity="1" fill-rule="nonzero"/><path fill="#ffffff" d="M 30.601562 34.511719 L 28.152344 34.511719 C 27.851562 34.511719 27.605469 34.265625 27.605469 33.964844 C 27.605469 33.65625 27.851562 33.410156 28.152344 33.410156 L 30.601562 33.410156 C 30.90625 33.410156 31.152344 33.65625 31.152344 33.964844 C 31.152344 34.265625 30.90625 34.511719 30.601562 34.511719 Z M 30.601562 34.511719 " fill-opacity="1" fill-rule="nonzero"/><path fill="#ffffff" d="M 33.050781 30.382812 L 28.152344 30.382812 C 27.851562 30.382812 27.605469 30.136719 27.605469 29.828125 C 27.605469 29.527344 27.851562 29.28125 28.152344 29.28125 L 33.050781 29.28125 C 33.351562 29.28125 33.597656 29.527344 33.597656 29.828125 C 33.597656 30.136719 33.351562 30.382812 33.050781 30.382812 Z M 33.050781 30.382812 " fill-opacity="1" fill-rule="nonzero"/><path fill="#ffffff" d="M 19.242188 36.355469 L 14.351562 36.355469 C 14.046875 36.355469 13.800781 36.109375 13.800781 35.804688 C 13.800781 35.5 14.046875 35.253906 14.351562 35.253906 L 19.242188 35.253906 C 19.550781 35.253906 19.796875 35.5 19.796875 35.804688 C 19.796875 36.109375 19.550781 36.355469 19.242188 36.355469 Z M 19.242188 36.355469 " fill-opacity="1" fill-rule="nonzero"/><path fill="#9ce491" d="M 17.292969 24.410156 C 17.152344 24.410156 17.007812 24.371094 16.878906 24.28125 L 13.066406 21.621094 C 12.734375 21.394531 12.65625 20.9375 12.882812 20.613281 C 13.117188 20.28125 13.566406 20.199219 13.898438 20.429688 L 17.710938 23.089844 C 18.035156 23.316406 18.121094 23.773438 17.886719 24.097656 C 17.75 24.300781 17.519531 24.410156 17.292969 24.410156 Z M 17.292969 24.410156 " fill-opacity="1" fill-rule="nonzero"/><path fill="#5aaf4b" d="M 20.019531 21.554688 C 19.785156 21.554688 19.558594 21.441406 19.414062 21.234375 L 17.785156 18.828125 C 17.554688 18.488281 17.644531 18.039062 17.976562 17.816406 C 18.308594 17.589844 18.757812 17.679688 18.984375 18.011719 L 20.617188 20.417969 C 20.84375 20.753906 20.753906 21.203125 20.425781 21.425781 C 20.300781 21.511719 20.15625 21.554688 20.019531 21.554688 Z M 20.019531 21.554688 " fill-opacity="1" fill-rule="nonzero"/><path fill="#9ce491" d="M 23.632812 20.597656 C 23.234375 20.597656 22.90625 20.355469 22.90625 20.058594 L 22.90625 16.621094 C 22.90625 16.324219 23.234375 16.085938 23.632812 16.085938 C 24.035156 16.085938 24.359375 16.324219 24.359375 16.621094 L 24.359375 20.058594 C 24.359375 20.355469 24.035156 20.597656 23.632812 20.597656 Z M 23.632812 20.597656 " fill-opacity="1" fill-rule="nonzero"/><path fill="#5aaf4b" d="M 27.34375 21.554688 C 27.199219 21.554688 27.054688 21.511719 26.933594 21.425781 C 26.601562 21.199219 26.515625 20.746094 26.746094 20.417969 L 28.316406 18.125 C 28.542969 17.796875 28.996094 17.714844 29.324219 17.941406 C 29.65625 18.167969 29.742188 18.617188 29.511719 18.949219 L 27.941406 21.238281 C 27.796875 21.441406 27.574219 21.554688 27.34375 21.554688 Z M 27.34375 21.554688 " fill-opacity="1" fill-rule="nonzero"/><path fill="#9ce491" d="M 30.25 24.226562 C 30.003906 24.226562 29.761719 24.101562 29.628906 23.875 C 29.417969 23.527344 29.527344 23.085938 29.875 22.882812 L 33.503906 20.699219 C 33.851562 20.492188 34.296875 20.605469 34.503906 20.949219 C 34.710938 21.292969 34.597656 21.738281 34.257812 21.945312 L 30.621094 24.121094 C 30.503906 24.195312 30.375 24.226562 30.25 24.226562 Z M 30.25 24.226562 " fill-opacity="1" fill-rule="nonzero"/><g clip-path="url(#ef39613279)"><path fill="#9ce491" d="M 44.53125 1.792969 L 50.011719 11.972656 C 50.277344 12.472656 49.953125 12.84375 49.285156 12.792969 C 49.285156 12.792969 36.742188 11.410156 36.660156 11.261719 L 30.949219 0.863281 C 30.679688 0.367188 31.003906 -0.00390625 31.667969 0.0390625 L 42.832031 0.804688 C 43.5 0.851562 44.261719 1.296875 44.53125 1.792969 Z M 44.53125 1.792969 " fill-opacity="1" fill-rule="evenodd"/></g><path fill="#5aaf4b" d="M 34.371094 4.261719 C 35.8125 2.023438 46.417969 8.835938 44.960938 11.09375 L 42.375 15.035156 C 42.054688 15.53125 39.753906 13.984375 36.832031 12.101562 C 33.90625 10.210938 31.460938 8.707031 31.785156 8.203125 Z M 34.371094 4.261719 " fill-opacity="1" fill-rule="evenodd"/></svg>