<svg xmlns="http://www.w3.org/2000/svg" xmlns:xlink="http://www.w3.org/1999/xlink" width="45" zoomAndPan="magnify" viewBox="0 0 33.75 33.749998" height="45" preserveAspectRatio="xMidYMid meet" version="1.0"><defs><filter x="0%" y="0%" width="100%" height="100%" id="e7055a1897"><feColorMatrix values="0 0 0 0 1 0 0 0 0 1 0 0 0 0 1 0 0 0 1 0" color-interpolation-filters="sRGB"/></filter><clipPath id="eae506da48"><path d="M 4.824219 4.078125 L 27.902344 4.078125 L 27.902344 27.160156 L 4.824219 27.160156 Z M 4.824219 4.078125 " clip-rule="nonzero"/></clipPath><clipPath id="053519a51d"><path d="M 13 10.664062 L 21.933594 10.664062 L 21.933594 20.339844 L 13 20.339844 Z M 13 10.664062 " clip-rule="nonzero"/></clipPath><clipPath id="28219f94f4"><path d="M 0 0 L 33.5 0 L 33.5 33.5 L 0 33.5 Z M 0 0 " clip-rule="nonzero"/></clipPath><mask id="9293e67388"><g filter="url(#e7055a1897)"><rect x="-3.375" width="40.5" fill="#000000" y="-3.375" height="40.499998" fill-opacity="0.25"/></g></mask><clipPath id="bcc5d7a2ab"><path d="M 0 0 L 32.757812 0 L 32.757812 32.757812 L 0 32.757812 Z M 0 0 " clip-rule="nonzero"/></clipPath><clipPath id="86dd71164c"><rect x="0" width="34" y="0" height="34"/></clipPath><clipPath id="bdd95678d0"><path d="M 4.824219 4.078125 L 27.902344 4.078125 L 27.902344 27.160156 L 4.824219 27.160156 Z M 4.824219 4.078125 " clip-rule="nonzero"/></clipPath><clipPath id="6c3be48ea9"><path d="M 11.984375 10.664062 L 20.917969 10.664062 L 20.917969 20.339844 L 11.984375 20.339844 Z M 11.984375 10.664062 " clip-rule="nonzero"/></clipPath></defs><g clip-path="url(#eae506da48)"><path fill="#ed0000" d="M 28.046875 15.691406 C 28.046875 16.453125 27.96875 17.207031 27.820312 17.953125 C 27.671875 18.703125 27.453125 19.429688 27.160156 20.132812 C 26.871094 20.835938 26.511719 21.507812 26.089844 22.140625 C 25.664062 22.773438 25.183594 23.359375 24.644531 23.898438 C 24.105469 24.4375 23.519531 24.921875 22.886719 25.34375 C 22.25 25.765625 21.582031 26.125 20.878906 26.417969 C 20.171875 26.707031 19.445312 26.929688 18.699219 27.078125 C 17.953125 27.226562 17.195312 27.300781 16.433594 27.300781 C 15.671875 27.300781 14.917969 27.226562 14.167969 27.078125 C 13.421875 26.929688 12.695312 26.707031 11.992188 26.417969 C 11.285156 26.125 10.617188 25.765625 9.984375 25.34375 C 9.351562 24.921875 8.761719 24.4375 8.222656 23.898438 C 7.683594 23.359375 7.203125 22.773438 6.78125 22.140625 C 6.355469 21.507812 6 20.835938 5.707031 20.132812 C 5.414062 19.429688 5.195312 18.703125 5.046875 17.953125 C 4.898438 17.207031 4.824219 16.453125 4.824219 15.691406 C 4.824219 14.925781 4.898438 14.171875 5.046875 13.425781 C 5.195312 12.675781 5.414062 11.949219 5.707031 11.246094 C 6 10.542969 6.355469 9.875 6.78125 9.238281 C 7.203125 8.605469 7.683594 8.019531 8.222656 7.480469 C 8.761719 6.941406 9.351562 6.460938 9.984375 6.035156 C 10.617188 5.613281 11.285156 5.253906 11.992188 4.964844 C 12.695312 4.671875 13.421875 4.449219 14.167969 4.300781 C 14.917969 4.152344 15.671875 4.078125 16.433594 4.078125 C 17.195312 4.078125 17.953125 4.152344 18.699219 4.300781 C 19.445312 4.449219 20.171875 4.671875 20.878906 4.964844 C 21.582031 5.253906 22.25 5.613281 22.886719 6.035156 C 23.519531 6.460938 24.105469 6.941406 24.644531 7.480469 C 25.183594 8.019531 25.664062 8.605469 26.089844 9.238281 C 26.511719 9.875 26.871094 10.542969 27.160156 11.246094 C 27.453125 11.949219 27.671875 12.675781 27.820312 13.425781 C 27.96875 14.171875 28.046875 14.925781 28.046875 15.691406 Z M 28.046875 15.691406 " fill-opacity="1" fill-rule="nonzero"/></g><g clip-path="url(#053519a51d)"><path fill="#efefef" d="M 21.570312 14.933594 L 14.039062 10.789062 C 13.824219 10.667969 13.558594 10.671875 13.347656 10.789062 C 13.132812 10.910156 13.003906 11.128906 13.003906 11.367188 L 13.027344 19.695312 C 13.027344 19.929688 13.160156 20.148438 13.378906 20.265625 C 13.484375 20.328125 13.601562 20.355469 13.722656 20.355469 C 13.839844 20.355469 13.960938 20.324219 14.070312 20.265625 L 21.574219 16.082031 C 21.789062 15.964844 21.917969 15.746094 21.917969 15.507812 C 21.917969 15.269531 21.785156 15.050781 21.570312 14.933594 Z M 21.570312 14.933594 " fill-opacity="1" fill-rule="nonzero"/></g><g clip-path="url(#28219f94f4)"><g mask="url(#9293e67388)"><g transform="matrix(1, 0, 0, 1, 0, -0.000000000000001048)"><g clip-path="url(#86dd71164c)"><g clip-path="url(#bcc5d7a2ab)"><path fill="#368803" d="M 32.882812 16.441406 C 32.882812 16.980469 32.855469 17.515625 32.804688 18.050781 C 32.75 18.589844 32.671875 19.121094 32.566406 19.648438 C 32.460938 20.175781 32.332031 20.699219 32.175781 21.214844 C 32.019531 21.730469 31.835938 22.234375 31.628906 22.734375 C 31.425781 23.230469 31.195312 23.714844 30.941406 24.191406 C 30.6875 24.667969 30.410156 25.128906 30.113281 25.574219 C 29.8125 26.023438 29.492188 26.457031 29.148438 26.871094 C 28.808594 27.289062 28.449219 27.6875 28.066406 28.066406 C 27.6875 28.449219 27.289062 28.808594 26.871094 29.148438 C 26.457031 29.492188 26.023438 29.8125 25.574219 30.113281 C 25.128906 30.410156 24.667969 30.6875 24.191406 30.941406 C 23.714844 31.195312 23.230469 31.425781 22.734375 31.628906 C 22.234375 31.835938 21.730469 32.019531 21.214844 32.175781 C 20.699219 32.332031 20.175781 32.460938 19.648438 32.566406 C 19.121094 32.671875 18.589844 32.75 18.050781 32.804688 C 17.515625 32.855469 16.980469 32.882812 16.441406 32.882812 C 15.902344 32.882812 15.367188 32.855469 14.828125 32.804688 C 14.292969 32.75 13.761719 32.671875 13.234375 32.566406 C 12.707031 32.460938 12.183594 32.332031 11.667969 32.175781 C 11.152344 32.019531 10.648438 31.835938 10.148438 31.628906 C 9.652344 31.425781 9.164062 31.195312 8.691406 30.941406 C 8.214844 30.6875 7.753906 30.410156 7.308594 30.113281 C 6.859375 29.8125 6.425781 29.492188 6.011719 29.148438 C 5.59375 28.808594 5.195312 28.449219 4.816406 28.066406 C 4.433594 27.6875 4.074219 27.289062 3.730469 26.871094 C 3.390625 26.457031 3.070312 26.023438 2.769531 25.574219 C 2.472656 25.128906 2.195312 24.667969 1.941406 24.191406 C 1.6875 23.714844 1.457031 23.230469 1.25 22.734375 C 1.046875 22.234375 0.863281 21.730469 0.707031 21.214844 C 0.550781 20.699219 0.421875 20.175781 0.316406 19.648438 C 0.210938 19.121094 0.132812 18.589844 0.078125 18.050781 C 0.0273438 17.515625 0 16.980469 0 16.441406 C 0 15.902344 0.0273438 15.367188 0.078125 14.828125 C 0.132812 14.292969 0.210938 13.761719 0.316406 13.234375 C 0.421875 12.707031 0.550781 12.183594 0.707031 11.667969 C 0.863281 11.152344 1.046875 10.648438 1.25 10.148438 C 1.457031 9.652344 1.6875 9.164062 1.941406 8.691406 C 2.195312 8.214844 2.472656 7.753906 2.769531 7.308594 C 3.070312 6.859375 3.390625 6.425781 3.730469 6.011719 C 4.074219 5.59375 4.433594 5.195312 4.816406 4.816406 C 5.195312 4.433594 5.59375 4.074219 6.011719 3.730469 C 6.425781 3.390625 6.859375 3.070312 7.308594 2.769531 C 7.753906 2.472656 8.214844 2.195312 8.691406 1.941406 C 9.164062 1.6875 9.652344 1.457031 10.148438 1.25 C 10.648438 1.046875 11.152344 0.863281 11.667969 0.707031 C 12.183594 0.550781 12.707031 0.421875 13.234375 0.316406 C 13.761719 0.210938 14.292969 0.132812 14.828125 0.078125 C 15.367188 0.0273438 15.902344 0 16.441406 0 C 16.980469 0 17.515625 0.0273438 18.050781 0.078125 C 18.589844 0.132812 19.121094 0.210938 19.648438 0.316406 C 20.175781 0.421875 20.699219 0.550781 21.214844 0.707031 C 21.730469 0.863281 22.234375 1.046875 22.734375 1.25 C 23.230469 1.457031 23.714844 1.6875 24.191406 1.941406 C 24.667969 2.195312 25.128906 2.472656 25.574219 2.769531 C 26.023438 3.070312 26.457031 3.390625 26.871094 3.730469 C 27.289062 4.074219 27.6875 4.433594 28.066406 4.816406 C 28.449219 5.195312 28.808594 5.59375 29.148438 6.011719 C 29.492188 6.425781 29.8125 6.859375 30.113281 7.308594 C 30.410156 7.753906 30.6875 8.214844 30.941406 8.691406 C 31.195312 9.164062 31.425781 9.652344 31.628906 10.148438 C 31.835938 10.648438 32.019531 11.152344 32.175781 11.667969 C 32.332031 12.183594 32.460938 12.707031 32.566406 13.234375 C 32.671875 13.761719 32.75 14.292969 32.804688 14.828125 C 32.855469 15.367188 32.882812 15.902344 32.882812 16.441406 Z M 32.882812 16.441406 " fill-opacity="1" fill-rule="nonzero"/></g></g></g></g></g><g clip-path="url(#bdd95678d0)"><path fill="#1f8d16" d="M 28.046875 15.691406 C 28.046875 16.453125 27.96875 17.207031 27.820312 17.953125 C 27.671875 18.703125 27.453125 19.429688 27.160156 20.132812 C 26.871094 20.835938 26.511719 21.507812 26.089844 22.140625 C 25.664062 22.773438 25.183594 23.359375 24.644531 23.898438 C 24.105469 24.4375 23.519531 24.921875 22.886719 25.34375 C 22.25 25.765625 21.582031 26.125 20.878906 26.417969 C 20.171875 26.707031 19.445312 26.929688 18.699219 27.078125 C 17.953125 27.226562 17.195312 27.300781 16.433594 27.300781 C 15.671875 27.300781 14.917969 27.226562 14.167969 27.078125 C 13.421875 26.929688 12.695312 26.707031 11.992188 26.417969 C 11.285156 26.125 10.617188 25.765625 9.984375 25.34375 C 9.351562 24.921875 8.761719 24.4375 8.222656 23.898438 C 7.683594 23.359375 7.203125 22.773438 6.78125 22.140625 C 6.355469 21.507812 6 20.835938 5.707031 20.132812 C 5.414062 19.429688 5.195312 18.703125 5.046875 17.953125 C 4.898438 17.207031 4.824219 16.453125 4.824219 15.691406 C 4.824219 14.925781 4.898438 14.171875 5.046875 13.425781 C 5.195312 12.675781 5.414062 11.949219 5.707031 11.246094 C 6 10.542969 6.355469 9.875 6.78125 9.238281 C 7.203125 8.605469 7.683594 8.019531 8.222656 7.480469 C 8.761719 6.941406 9.351562 6.460938 9.984375 6.035156 C 10.617188 5.613281 11.285156 5.253906 11.992188 4.964844 C 12.695312 4.671875 13.421875 4.449219 14.167969 4.300781 C 14.917969 4.152344 15.671875 4.078125 16.433594 4.078125 C 17.195312 4.078125 17.953125 4.152344 18.699219 4.300781 C 19.445312 4.449219 20.171875 4.671875 20.878906 4.964844 C 21.582031 5.253906 22.25 5.613281 22.886719 6.035156 C 23.519531 6.460938 24.105469 6.941406 24.644531 7.480469 C 25.183594 8.019531 25.664062 8.605469 26.089844 9.238281 C 26.511719 9.875 26.871094 10.542969 27.160156 11.246094 C 27.453125 11.949219 27.671875 12.675781 27.820312 13.425781 C 27.96875 14.171875 28.046875 14.925781 28.046875 15.691406 Z M 28.046875 15.691406 " fill-opacity="1" fill-rule="nonzero"/></g><g clip-path="url(#6c3be48ea9)"><path fill="#efefef" d="M 20.558594 14.933594 L 13.023438 10.789062 C 12.8125 10.667969 12.546875 10.671875 12.332031 10.789062 C 12.121094 10.910156 11.988281 11.128906 11.988281 11.367188 L 12.015625 19.695312 C 12.015625 19.929688 12.148438 20.148438 12.363281 20.265625 C 12.46875 20.328125 12.589844 20.355469 12.707031 20.355469 C 12.824219 20.355469 12.945312 20.324219 13.054688 20.265625 L 20.5625 16.082031 C 20.773438 15.964844 20.90625 15.746094 20.90625 15.507812 C 20.90625 15.269531 20.773438 15.050781 20.558594 14.933594 Z M 20.558594 14.933594 " fill-opacity="1" fill-rule="nonzero"/></g></svg>